<svg width="522" height="500" viewBox="0 0 522 500" fill="none" xmlns="http://www.w3.org/2000/svg">
<g filter="url(#filter0_d_416_187)">
<path d="M145.794 574.64C177.615 517.694 265.126 543.915 310.094 545.535C344.45 510.744 356.039 483.427 366.037 435.727C376.036 388.027 371.91 338.799 354.181 294.269C336.452 249.738 305.917 211.904 266.436 185.552C226.956 159.199 180.303 145.512 132.378 146.22C84.4531 146.929 22.6281 161.469 -17.5877 189C-46.12 217.502 -14.8038 261.432 -33.7552 306.505C-52.7066 351.578 -29.4447 308.727 -20.744 356.151L-23.2025 344.909C-28.7604 314.616 -25.2578 362.377 -13.152 333.585C-1.04626 304.793 19.1266 280.039 44.8157 262.453C70.5047 244.867 100.556 235.239 131.17 234.787C161.783 234.334 191.584 243.077 216.803 259.911C242.023 276.744 261.528 300.912 272.853 329.357C284.178 357.802 286.813 389.248 280.427 419.718C274.04 450.188 258.917 478.313 236.971 500.536C215.025 522.76 223.114 534.831 193.006 541.318L145.794 574.64Z" fill="#F3B105" fill-opacity="0.5" shape-rendering="crispEdges"/>
<path d="M-21.9531 340.888C-22.2075 340.575 -22.4491 340.198 -22.6746 339.779C-22.9529 338.451 -23.1972 337.384 -23.4077 336.542C-23.6186 335.699 -23.8007 335.061 -23.9548 334.604C-24.031 334.377 -24.1088 334.17 -24.1892 333.994C-24.2292 333.906 -24.2795 333.805 -24.3413 333.703C-24.3911 333.621 -24.5031 333.446 -24.6885 333.283C-24.8324 333.156 -25.4132 332.704 -26.2056 332.974C-26.9017 333.211 -27.1223 333.811 -27.1634 333.925C-27.2497 334.164 -27.269 334.403 -27.2724 334.556C-27.5176 334.257 -27.7642 333.974 -28.0121 333.706C-31.3673 330.083 -34.8171 329.442 -37.1248 329.013C-37.1987 328.999 -37.2714 328.985 -37.3429 328.972C-37.9189 328.864 -38.3458 328.777 -38.6918 328.668C-39.0318 328.56 -39.1888 328.462 -39.2656 328.394C-39.3117 328.353 -39.6035 328.123 -39.4505 326.778C-39.2974 325.432 -38.7383 323.362 -37.5823 320.14C-36.4357 316.945 -34.739 312.715 -32.3725 307.086C-23.4376 285.836 -25.4885 264.832 -27.3365 245.905C-27.4845 244.389 -27.6312 242.886 -27.7709 241.398C-29.6656 221.206 -30.2375 203.842 -16.6251 190.159C23.2814 162.893 84.7193 148.425 132.4 147.72C180.025 147.016 226.378 160.617 265.604 186.799C304.829 212.981 335.17 250.572 352.788 294.823C370.405 339.075 374.508 388.003 364.569 435.419C359.58 459.219 354.215 477.833 345.854 494.809C337.576 511.618 326.327 526.891 309.491 544.01C300.598 543.646 290.076 542.351 278.594 540.937C275.817 540.595 272.984 540.246 270.104 539.902C255.071 538.105 238.84 536.444 222.997 536.626C218.327 536.679 213.681 536.893 209.101 537.312C209.509 537.081 209.904 536.846 210.287 536.606C214.331 534.074 216.968 531.092 219.29 527.671C220.551 525.814 221.708 523.855 222.942 521.766C226.26 516.15 230.13 509.598 238.038 501.59C260.186 479.162 275.448 450.778 281.895 420.026C288.341 389.272 285.682 357.526 274.247 328.802C262.811 300.077 243.111 275.667 217.636 258.663C192.161 241.659 162.062 232.83 131.147 233.287C100.234 233.744 69.8964 243.466 43.9684 261.216C18.0407 278.965 -2.31769 303.947 -14.5348 333.004C-16.0231 336.544 -17.335 338.795 -18.4451 340.142C-19.5743 341.512 -20.3131 341.734 -20.6456 341.742C-20.9516 341.749 -21.3899 341.581 -21.9531 340.888ZM-24.2719 334.607C-24.2719 334.612 -24.2721 334.62 -24.2728 334.631C-24.2733 334.601 -24.2719 334.595 -24.2719 334.607ZM151.106 569.055C159.819 556.896 171.631 549.399 185.166 545.016L151.106 569.055Z" stroke="#47A2C3" stroke-width="3" shape-rendering="crispEdges"/>
</g>
<defs>
<filter id="filter0_d_416_187" x="-190.994" y="0.194168" width="712.363" height="728.446" filterUnits="userSpaceOnUse" color-interpolation-filters="sRGB">
<feFlood flood-opacity="0" result="BackgroundImageFix"/>
<feColorMatrix in="SourceAlpha" type="matrix" values="0 0 0 0 0 0 0 0 0 0 0 0 0 0 0 0 0 0 127 0" result="hardAlpha"/>
<feOffset dy="4"/>
<feGaussianBlur stdDeviation="75"/>
<feComposite in2="hardAlpha" operator="out"/>
<feColorMatrix type="matrix" values="0 0 0 0 0.278431 0 0 0 0 0.635294 0 0 0 0 0.764706 0 0 0 0.4 0"/>
<feBlend mode="normal" in2="BackgroundImageFix" result="effect1_dropShadow_416_187"/>
<feBlend mode="normal" in="SourceGraphic" in2="effect1_dropShadow_416_187" result="shape"/>
</filter>
</defs>
</svg>
