<svg width="539" height="529" viewBox="0 0 539 529" fill="none" xmlns="http://www.w3.org/2000/svg">
<g filter="url(#filter0_d_416_189)">
<path d="M369.339 -53.4357C339.587 4.61907 251.189 -18.4357 206.192 -18.4357C173.11 17.5692 162.513 45.2855 154.237 93.3142C145.962 141.343 151.857 190.39 171.177 234.254C190.497 278.118 222.374 314.829 262.778 339.743C303.181 364.658 350.296 376.657 398.164 374.224C446.033 371.791 507.295 355.035 546.493 326.075C573.982 296.564 541.105 253.79 558.422 208.064C575.738 162.338 554.034 205.998 543.632 158.919L546.493 170.064C553.138 200.138 547.919 152.534 536.857 181.743C525.795 210.952 506.526 236.416 481.487 254.915C456.447 273.414 426.762 284.118 396.185 285.672C365.607 287.226 335.511 279.561 309.702 263.646C283.893 247.731 263.531 224.281 251.189 196.262C238.848 168.242 235.083 136.912 240.369 106.232C245.655 75.5522 259.756 46.9011 280.887 23.9019C302.019 0.902726 293.501 -10.8692 323.356 -18.4357L369.339 -53.4357Z" fill="#47A2C3"/>
<path d="M545.39 174.128C545.655 174.432 545.91 174.8 546.151 175.211C546.476 176.528 546.759 177.585 547 178.419C547.241 179.254 547.446 179.885 547.616 180.336C547.7 180.56 547.786 180.764 547.872 180.937C547.916 181.024 547.969 181.123 548.035 181.223C548.088 181.303 548.206 181.474 548.397 181.63C548.545 181.751 549.142 182.182 549.924 181.884C550.611 181.622 550.81 181.015 550.847 180.899C550.925 180.657 550.935 180.417 550.933 180.264C551.189 180.555 551.446 180.829 551.703 181.088C555.187 184.587 558.657 185.104 560.979 185.45C561.053 185.461 561.126 185.472 561.198 185.483C561.778 185.57 562.208 185.641 562.557 185.738C562.901 185.833 563.061 185.926 563.141 185.991C563.188 186.03 563.488 186.25 563.383 187.6C563.279 188.95 562.795 191.039 561.755 194.3C560.724 197.534 559.181 201.823 557.019 207.533C548.854 229.091 551.66 250.008 554.188 268.856C554.39 270.366 554.591 271.862 554.784 273.344C557.404 293.455 558.601 310.787 545.49 324.952C506.59 353.636 445.713 370.306 398.088 372.726C350.52 375.144 303.707 363.22 263.565 338.466C223.423 313.713 191.748 277.238 172.55 233.65C153.351 190.06 147.489 141.312 155.716 93.5689C159.845 69.605 164.537 50.8105 172.281 33.5442C179.949 16.4478 190.641 0.780059 206.85 -16.934C215.75 -16.8903 226.312 -15.9741 237.838 -14.9744C240.625 -14.7327 243.469 -14.486 246.359 -14.2456C261.447 -12.9907 277.728 -11.9153 293.554 -12.6668C298.219 -12.8883 302.854 -13.2693 307.416 -13.8534C307.017 -13.6077 306.63 -13.3581 306.256 -13.1044C302.306 -10.4285 299.778 -7.35366 297.58 -3.85136C296.387 -1.95057 295.301 0.0491105 294.143 2.18088C291.03 7.91269 287.398 14.5995 279.783 22.8871C258.457 46.0978 244.226 75.0125 238.891 105.977C233.555 136.942 237.354 168.572 249.817 196.866C262.279 225.161 282.844 248.847 308.915 264.923C334.985 280.999 365.383 288.739 396.261 287.17C427.138 285.6 457.106 274.793 482.378 256.122C507.65 237.451 527.096 211.752 538.26 182.274C539.62 178.683 540.85 176.386 541.911 175C542.99 173.59 543.72 173.342 544.052 173.322C544.358 173.304 544.802 173.456 545.39 174.128ZM364.231 -47.6623C355.962 -35.1976 344.427 -27.2811 331.058 -22.413L364.231 -47.6623Z" stroke="#F3B105" stroke-opacity="0.4" stroke-width="3"/>
</g>
<defs>
<filter id="filter0_d_416_189" x="0.593872" y="-199.436" width="714.311" height="727.968" filterUnits="userSpaceOnUse" color-interpolation-filters="sRGB">
<feFlood flood-opacity="0" result="BackgroundImageFix"/>
<feColorMatrix in="SourceAlpha" type="matrix" values="0 0 0 0 0 0 0 0 0 0 0 0 0 0 0 0 0 0 127 0" result="hardAlpha"/>
<feOffset dy="4"/>
<feGaussianBlur stdDeviation="75"/>
<feComposite in2="hardAlpha" operator="out"/>
<feColorMatrix type="matrix" values="0 0 0 0 0.952941 0 0 0 0 0.694118 0 0 0 0 0.0196078 0 0 0 0.4 0"/>
<feBlend mode="normal" in2="BackgroundImageFix" result="effect1_dropShadow_416_189"/>
<feBlend mode="normal" in="SourceGraphic" in2="effect1_dropShadow_416_189" result="shape"/>
</filter>
</defs>
</svg>
